{
	"asset":{
		"generator":"Khronos glTF Blender I/O v4.1.62",
		"version":"2.0"
	},
	"scene":0,
	"scenes":[
		{
			"name":"Scene",
			"nodes":[
				27
			]
		}
	],
	"nodes":[
		{
			"name":"arm_right_hand_end",
			"rotation":[
				-3.390014171600342e-07,
				6.09084963798523e-07,
				1.30385160446167e-07,
				1
			],
			"scale":[
				0.9999999403953552,
				1.0000001192092896,
				1
			],
			"translation":[
				9.5367431640625e-07,
				5.633233547210693,
				1.430511474609375e-06
			]
		},
		{
			"children":[
				0
			],
			"name":"arm_right_hand",
			"rotation":[
				2.0861624250301247e-07,
				-6.034970283508301e-07,
				-7.078051567077637e-08,
				1
			],
			"scale":[
				1,
				1.0000001192092896,
				1
			],
			"translation":[
				-9.5367431640625e-07,
				11.266468048095703,
				0
			]
		},
		{
			"children":[
				1
			],
			"name":"arm_right_bot",
			"rotation":[
				0.2020409107208252,
				-0.949786901473999,
				-0.23358798027038574,
				0.05020918324589729
			],
			"scale":[
				0.9999999403953552,
				1.000000238418579,
				0.9999998807907104
			],
			"translation":[
				2.5406479835510254e-06,
				16.016742706298828,
				7.562339305877686e-07
			]
		},
		{
			"children":[
				2
			],
			"name":"arm_right_top",
			"rotation":[
				-0.20083174109458923,
				0.23850584030151367,
				0.42911431193351746,
				0.8477278351783752
			],
			"scale":[
				0.9999999403953552,
				0.9999998807907104,
				0.9999999403953552
			],
			"translation":[
				4.76837158203125e-07,
				2.7469048500061035,
				-1.1920928955078125e-06
			]
		},
		{
			"children":[
				3
			],
			"name":"shoulder_right",
			"rotation":[
				-0.07571634650230408,
				-0.003957986831665039,
				0.8538063764572144,
				0.51503986120224
			],
			"scale":[
				1.0000001192092896,
				1,
				1
			],
			"translation":[
				-10.980330467224121,
				-0.1323249340057373,
				-1.5409741401672363
			]
		},
		{
			"name":"arm_left_hand_end",
			"rotation":[
				2.2351741790771484e-07,
				3.0919909477233887e-07,
				7.82310962677002e-08,
				1
			],
			"translation":[
				-2.384185791015625e-06,
				5.633239269256592,
				-4.76837158203125e-07
			]
		},
		{
			"children":[
				5
			],
			"name":"arm_left_hand",
			"rotation":[
				-2.1606683731079102e-07,
				-3.632158041000366e-07,
				-9.313225746154785e-08,
				1
			],
			"translation":[
				2.384185791015625e-07,
				11.266468048095703,
				-4.76837158203125e-07
			]
		},
		{
			"children":[
				6
			],
			"name":"arm_left_bot",
			"rotation":[
				0.20204122364521027,
				0.949786901473999,
				0.23358793556690216,
				0.05020848661661148
			],
			"scale":[
				0.9999999403953552,
				0.9999995827674866,
				1
			],
			"translation":[
				-3.084540367126465e-06,
				16.01675033569336,
				4.421919584274292e-06
			]
		},
		{
			"children":[
				7
			],
			"name":"arm_left_top",
			"rotation":[
				-0.20083212852478027,
				-0.23850634694099426,
				-0.4291141927242279,
				0.8477276563644409
			],
			"translation":[
				7.152557373046875e-07,
				2.746901035308838,
				7.152557373046875e-07
			]
		},
		{
			"children":[
				8
			],
			"name":"shoulder_left",
			"rotation":[
				-0.07571645826101303,
				-0.003957879263907671,
				-0.795454204082489,
				0.601252019405365
			],
			"scale":[
				1.0000001192092896,
				0.9999999403953552,
				1
			],
			"translation":[
				10.151976585388184,
				2.0830307006835938,
				-1.5409740209579468
			]
		},
		{
			"name":"head_end",
			"rotation":[
				9.092478560433076e-15,
				-1.589525088158475e-16,
				1.862645149230957e-08,
				1
			],
			"translation":[
				7.858351125378249e-08,
				1.8639070987701416,
				8.373394848604221e-07
			]
		},
		{
			"children":[
				10
			],
			"name":"head",
			"rotation":[
				1.9848370587079514e-15,
				4.761917585510006e-16,
				-3.725290298461914e-09,
				1
			],
			"translation":[
				7.044322956062388e-07,
				3.72782039642334,
				-2.164046918551321e-06
			]
		},
		{
			"children":[
				11
			],
			"name":"neck",
			"rotation":[
				6.07180155043352e-08,
				-2.1658501658805562e-09,
				0.08776681870222092,
				0.9961410760879517
			],
			"translation":[
				2.457185530602146e-07,
				2.0109550952911377,
				-1.1932779671042226e-06
			]
		},
		{
			"children":[
				4,
				9,
				12
			],
			"name":"body_top2",
			"rotation":[
				-1.505054711969933e-07,
				-3.9305585453064396e-09,
				-0.06470762938261032,
				0.9979042410850525
			],
			"scale":[
				1,
				0.9999999403953552,
				1
			],
			"translation":[
				-1.1449070314029086e-07,
				5.305909156799316,
				1.1787433322751895e-06
			]
		},
		{
			"children":[
				13
			],
			"name":"body_top1",
			"rotation":[
				8.98736800536426e-08,
				6.676995067955716e-10,
				0.019955262541770935,
				0.9998009204864502
			],
			"translation":[
				2.9588566263782923e-08,
				6.365793228149414,
				8.18467810859147e-07
			]
		},
		{
			"children":[
				14
			],
			"name":"body_top0",
			"rotation":[
				-4.566296342781162e-13,
				-2.6955159126626754e-15,
				0.006706349551677704,
				0.9999775290489197
			],
			"translation":[
				-9.25731626466586e-07,
				5.306361198425293,
				3.1989354738470865e-06
			]
		},
		{
			"name":"leg_left_foot_end",
			"rotation":[
				6.332993507385254e-08,
				-3.725291186640334e-09,
				6.332993507385254e-08,
				1
			],
			"scale":[
				0.9999999403953552,
				1,
				1
			],
			"translation":[
				-2.384185791015625e-06,
				5.615082263946533,
				2.2649765014648438e-06
			]
		},
		{
			"children":[
				16
			],
			"name":"leg_left_foot",
			"rotation":[
				-0.2439209222793579,
				-0.9310646653175354,
				-0.1861610859632492,
				0.1973961591720581
			],
			"scale":[
				1,
				1.000000238418579,
				1
			],
			"translation":[
				0,
				12.09496784210205,
				0
			]
		},
		{
			"children":[
				17
			],
			"name":"leg_left_bot",
			"rotation":[
				-0.062153518199920654,
				-0.7668806910514832,
				0.06595496088266373,
				0.6353589296340942
			],
			"scale":[
				0.9999998807907104,
				0.9999998211860657,
				0.9999999403953552
			],
			"translation":[
				-5.960464477539062e-07,
				14.636515617370605,
				-8.940696716308594e-07
			]
		},
		{
			"children":[
				18
			],
			"name":"leg_left_top",
			"rotation":[
				0.3133569657802582,
				0.004430053289979696,
				-0.947512686252594,
				0.06330535560846329
			],
			"scale":[
				0.999996542930603,
				0.9999999403953552,
				0.9999997615814209
			],
			"translation":[
				6.015934944152832,
				-3.2567381858825684,
				0.06900183111429214
			]
		},
		{
			"name":"leg_right_foot_end",
			"rotation":[
				-2.5145712356788863e-07,
				-2.7939677238464355e-08,
				1.825392388354885e-07,
				1
			],
			"scale":[
				1,
				0.9999998807907104,
				0.9999999403953552
			],
			"translation":[
				4.76837158203125e-07,
				5.615077018737793,
				1.430511474609375e-06
			]
		},
		{
			"children":[
				20
			],
			"name":"leg_right_foot",
			"rotation":[
				-0.2439211755990982,
				0.9310628771781921,
				0.18615832924842834,
				0.19740702211856842
			],
			"scale":[
				1,
				1,
				1.0000001192092896
			],
			"translation":[
				4.76837158203125e-07,
				12.094959259033203,
				-7.152557373046875e-07
			]
		},
		{
			"children":[
				21
			],
			"name":"leg_right_bot",
			"rotation":[
				-0.0621531717479229,
				0.7668832540512085,
				-0.06595481187105179,
				0.6353558301925659
			],
			"scale":[
				0.9999998807907104,
				0.9999999403953552,
				0.9999999403953552
			],
			"translation":[
				0,
				14.636518478393555,
				-7.748603820800781e-07
			]
		},
		{
			"children":[
				22
			],
			"name":"leg_right_top",
			"rotation":[
				0.3133571445941925,
				0.004429622087627649,
				0.9489234685897827,
				0.03649576008319855
			],
			"scale":[
				1.000005841255188,
				0.9999999403953552,
				1.000001311302185
			],
			"translation":[
				-6.219250202178955,
				-3.6027369499206543,
				0.06900183111429214
			]
		},
		{
			"children":[
				15,
				19,
				23
			],
			"name":"body",
			"rotation":[
				-4.7638277465011925e-06,
				-6.734484969683763e-08,
				-0.014135296456515789,
				0.9999001026153564
			],
			"translation":[
				-10.38199520111084,
				34.60708999633789,
				-0.0003297697694506496
			]
		},
		{
			"children":[
				24
			],
			"name":"root",
			"rotation":[
				-0.7071033716201782,
				0,
				0,
				0.7071101665496826
			],
			"translation":[
				10.58056354522705,
				13.092999458312988,
				35.43548583984375
			]
		},
		{
			"mesh":0,
			"name":"1e367306-a871-48f6-ac86-b0f6221f0b7c",
			"skin":0
		},
		{
			"children":[
				26,
				25
			],
			"name":"rig",
			"rotation":[
				0.7071068286895752,
				0,
				0,
				0.7071068286895752
			]
		}
	],
	"materials":[
		{
			"doubleSided":true,
			"name":"Material_0.001",
			"pbrMetallicRoughness":{
				"baseColorTexture":{
					"index":0
				},
				"roughnessFactor":0.9036020040512085
			}
		}
	],
	"meshes":[
		{
			"name":"1e367306-a871-48f6-ac86-b0f6221f0b7c",
			"primitives":[
				{
					"attributes":{
						"POSITION":0,
						"NORMAL":1,
						"TEXCOORD_0":2,
						"JOINTS_0":3,
						"WEIGHTS_0":4
					},
					"indices":5,
					"material":0
				}
			]
		}
	],
	"textures":[
		{
			"sampler":0,
			"source":0
		}
	],
	"images":[
		{
			"mimeType":"image/png",
			"name":"Image_0",
			"uri":"Image_0.png"
		}
	],
	"skins":[
		{
			"inverseBindMatrices":6,
			"joints":[
				25,
				24,
				15,
				14,
				13,
				4,
				3,
				2,
				1,
				0,
				9,
				8,
				7,
				6,
				5,
				12,
				11,
				10,
				19,
				18,
				17,
				16,
				23,
				22,
				21,
				20
			],
			"name":"rig"
		}
	],
	"accessors":[
		{
			"bufferView":0,
			"componentType":5126,
			"count":57458,
			"max":[
				25.20290184020996,
				35.43973159790039,
				24.68370819091797
			],
			"min":[
				-25.185157775878906,
				-35.43548583984375,
				-24.683704376220703
			],
			"type":"VEC3"
		},
		{
			"bufferView":1,
			"componentType":5126,
			"count":57458,
			"type":"VEC3"
		},
		{
			"bufferView":2,
			"componentType":5126,
			"count":57458,
			"type":"VEC2"
		},
		{
			"bufferView":3,
			"componentType":5121,
			"count":57458,
			"type":"VEC4"
		},
		{
			"bufferView":4,
			"componentType":5126,
			"count":57458,
			"type":"VEC4"
		},
		{
			"bufferView":5,
			"componentType":5123,
			"count":59448,
			"type":"SCALAR"
		},
		{
			"bufferView":6,
			"componentType":5126,
			"count":26,
			"type":"MAT4"
		}
	],
	"bufferViews":[
		{
			"buffer":0,
			"byteLength":689496,
			"byteOffset":0,
			"target":34962
		},
		{
			"buffer":0,
			"byteLength":689496,
			"byteOffset":689496,
			"target":34962
		},
		{
			"buffer":0,
			"byteLength":459664,
			"byteOffset":1378992,
			"target":34962
		},
		{
			"buffer":0,
			"byteLength":229832,
			"byteOffset":1838656,
			"target":34962
		},
		{
			"buffer":0,
			"byteLength":919328,
			"byteOffset":2068488,
			"target":34962
		},
		{
			"buffer":0,
			"byteLength":118896,
			"byteOffset":2987816,
			"target":34963
		},
		{
			"buffer":0,
			"byteLength":1664,
			"byteOffset":3106712
		}
	],
	"samplers":[
		{
			"magFilter":9729,
			"minFilter":9987
		}
	],
	"buffers":[
		{
			"byteLength":3108376,
			"uri":"1e367306-a871-48f6-ac86-b0f6221f0b7c.bin"
		}
	]
}
