{
	"asset":{
		"generator":"Khronos glTF Blender I/O v4.1.62",
		"version":"2.0"
	},
	"scene":0,
	"scenes":[
		{
			"name":"Scene",
			"nodes":[
				22
			]
		}
	],
	"nodes":[
		{
			"name":"arm_right_hand",
			"rotation":[
				4.3213367462158203e-07,
				-1.2852251529693604e-07,
				1.4528632164001465e-07,
				1
			],
			"translation":[
				1.430511474609375e-06,
				11.266472816467285,
				-9.5367431640625e-07
			]
		},
		{
			"children":[
				0
			],
			"name":"arm_right_bot",
			"rotation":[
				0.20204107463359833,
				-0.949786901473999,
				-0.23358793556690216,
				0.05020836740732193
			],
			"scale":[
				1,
				0.9999998807907104,
				1
			],
			"translation":[
				2.212822437286377e-06,
				16.016746520996094,
				3.0025839805603027e-06
			]
		},
		{
			"children":[
				1
			],
			"name":"arm_right_top",
			"rotation":[
				-0.2008323073387146,
				0.23850643634796143,
				0.42911452054977417,
				0.8477274179458618
			],
			"scale":[
				1,
				0.9999998807907104,
				0.9999999403953552
			],
			"translation":[
				-1.3113021850585938e-06,
				2.746901750564575,
				5.960464477539062e-07
			]
		},
		{
			"children":[
				2
			],
			"name":"shoulder_right",
			"rotation":[
				-0.07571639120578766,
				-0.003957968205213547,
				0.85380619764328,
				0.5150401592254639
			],
			"scale":[
				0.9999999403953552,
				0.9999999403953552,
				1
			],
			"translation":[
				-10.980332374572754,
				-0.1323203444480896,
				-1.5409752130508423
			]
		},
		{
			"name":"arm_left_hand",
			"rotation":[
				-3.5762786865234375e-07,
				-5.550682544708252e-07,
				-8.568167686462402e-08,
				1
			],
			"scale":[
				0.9999999403953552,
				1,
				1
			],
			"translation":[
				1.1920928955078125e-06,
				11.266471862792969,
				9.5367431640625e-07
			]
		},
		{
			"children":[
				4
			],
			"name":"arm_left_bot",
			"rotation":[
				0.20204098522663116,
				0.9497869610786438,
				0.23358789086341858,
				0.0502086877822876
			],
			"scale":[
				0.9999999403953552,
				0.9999997615814209,
				0.9999999403953552
			],
			"translation":[
				-3.725290298461914e-06,
				16.016756057739258,
				5.45009970664978e-06
			]
		},
		{
			"children":[
				5
			],
			"name":"arm_left_top",
			"rotation":[
				-0.2008318454027176,
				-0.23850597441196442,
				-0.42911431193351746,
				0.8477277755737305
			],
			"scale":[
				0.9999999403953552,
				1.0000001192092896,
				0.9999998807907104
			],
			"translation":[
				-4.76837158203125e-07,
				2.7468984127044678,
				0
			]
		},
		{
			"children":[
				6
			],
			"name":"shoulder_left",
			"rotation":[
				-0.07571649551391602,
				-0.003957897424697876,
				-0.7954542636871338,
				0.6012519598007202
			],
			"scale":[
				0.9999999403953552,
				0.9999998807907104,
				0.9999999403953552
			],
			"translation":[
				10.151975631713867,
				2.083036184310913,
				-1.5409750938415527
			]
		},
		{
			"name":"head",
			"rotation":[
				-1.4523164233184137e-14,
				-4.865018435849799e-16,
				-3.725290298461914e-09,
				1
			],
			"translation":[
				8.752415965318505e-07,
				3.7278201580047607,
				-2.011480759733786e-09
			]
		},
		{
			"children":[
				8
			],
			"name":"neck",
			"rotation":[
				6.071800129348048e-08,
				-2.1658725923856537e-09,
				0.08776679635047913,
				0.9961410164833069
			],
			"translation":[
				-2.7464190566206526e-07,
				2.010958433151245,
				-2.402678546786774e-06
			]
		},
		{
			"children":[
				3,
				7,
				9
			],
			"name":"body_top2",
			"rotation":[
				-6.075182312770266e-08,
				7.611686836384024e-10,
				-0.06470764428377151,
				0.9979042410850525
			],
			"translation":[
				-7.506925214784133e-08,
				5.305908679962158,
				1.2016204209430725e-06
			]
		},
		{
			"children":[
				10
			],
			"name":"body_top1",
			"rotation":[
				-1.7654831598189918e-15,
				-2.3812686374071086e-14,
				0.019955260679125786,
				0.9998009204864502
			],
			"translation":[
				-8.503462822773145e-09,
				6.365795135498047,
				4.79801997244067e-07
			]
		},
		{
			"children":[
				11
			],
			"name":"body_top0",
			"rotation":[
				-1.7254517474570431e-15,
				-3.285526029435078e-15,
				0.006706350017338991,
				0.9999775290489197
			],
			"translation":[
				-1.983131141969352e-06,
				5.306361198425293,
				6.480075171566568e-06
			]
		},
		{
			"name":"leg_left_foot",
			"rotation":[
				-0.24392129480838776,
				-0.9310643672943115,
				-0.1861615777015686,
				0.19739645719528198
			],
			"scale":[
				1,
				1,
				1.0000001192092896
			],
			"translation":[
				1.430511474609375e-06,
				12.094969749450684,
				-7.152557373046875e-07
			]
		},
		{
			"children":[
				13
			],
			"name":"leg_left_bot",
			"rotation":[
				-0.062153756618499756,
				-0.7668818235397339,
				0.06595499813556671,
				0.6353574991226196
			],
			"scale":[
				1.0000001192092896,
				1,
				1.0000001192092896
			],
			"translation":[
				-5.960464477539062e-07,
				14.636517524719238,
				1.0728836059570312e-06
			]
		},
		{
			"children":[
				14
			],
			"name":"leg_left_top",
			"rotation":[
				0.31335821747779846,
				0.004430133383721113,
				-0.9475122690200806,
				0.06330534815788269
			],
			"scale":[
				0.999996542930603,
				0.9999998211860657,
				0.9999997615814209
			],
			"translation":[
				6.015934467315674,
				-3.2567381858825684,
				0.06900615245103836
			]
		},
		{
			"name":"leg_right_foot",
			"rotation":[
				-0.24392059445381165,
				0.9310603737831116,
				0.18615098297595978,
				0.19742655754089355
			],
			"scale":[
				0.9999999403953552,
				0.999999463558197,
				0.9999998807907104
			],
			"translation":[
				-4.76837158203125e-07,
				12.094952583312988,
				0
			]
		},
		{
			"children":[
				16
			],
			"name":"leg_right_bot",
			"rotation":[
				-0.062151290476322174,
				0.7668856978416443,
				-0.06595552712678909,
				0.6353530287742615
			],
			"scale":[
				1,
				1.0000003576278687,
				1
			],
			"translation":[
				0,
				14.636520385742188,
				4.172325134277344e-07
			]
		},
		{
			"children":[
				17
			],
			"name":"leg_right_top",
			"rotation":[
				0.3133498728275299,
				0.004429901950061321,
				0.9489259123802185,
				0.03649572655558586
			],
			"scale":[
				1.000005841255188,
				0.9999999403953552,
				1.000001311302185
			],
			"translation":[
				-6.219250202178955,
				-3.6027348041534424,
				0.06900615245103836
			]
		},
		{
			"children":[
				12,
				15,
				18
			],
			"name":"body",
			"rotation":[
				-4.7638277465011925e-06,
				-6.734483548598291e-08,
				-0.014135297387838364,
				0.9999001026153564
			],
			"translation":[
				-10.38199520111084,
				34.607086181640625,
				-0.00033157833968289196
			]
		},
		{
			"children":[
				19
			],
			"name":"root",
			"rotation":[
				-0.7071033716201782,
				0,
				0,
				0.7071101665496826
			],
			"translation":[
				10.58056354522705,
				13.092999458312988,
				35.43548583984375
			]
		},
		{
			"mesh":0,
			"name":"1e367306-a871-48f6-ac86-b0f6221f0b7c",
			"skin":0
		},
		{
			"children":[
				21,
				20
			],
			"name":"rig",
			"rotation":[
				0.7071068286895752,
				0,
				0,
				0.7071068286895752
			]
		}
	],
	"animations":[
		{
			"channels":[
				{
					"sampler":0,
					"target":{
						"node":20,
						"path":"translation"
					}
				},
				{
					"sampler":1,
					"target":{
						"node":20,
						"path":"rotation"
					}
				},
				{
					"sampler":2,
					"target":{
						"node":20,
						"path":"scale"
					}
				},
				{
					"sampler":3,
					"target":{
						"node":19,
						"path":"translation"
					}
				},
				{
					"sampler":4,
					"target":{
						"node":19,
						"path":"rotation"
					}
				},
				{
					"sampler":5,
					"target":{
						"node":19,
						"path":"scale"
					}
				},
				{
					"sampler":6,
					"target":{
						"node":12,
						"path":"translation"
					}
				},
				{
					"sampler":7,
					"target":{
						"node":12,
						"path":"rotation"
					}
				},
				{
					"sampler":8,
					"target":{
						"node":12,
						"path":"scale"
					}
				},
				{
					"sampler":9,
					"target":{
						"node":11,
						"path":"translation"
					}
				},
				{
					"sampler":10,
					"target":{
						"node":11,
						"path":"rotation"
					}
				},
				{
					"sampler":11,
					"target":{
						"node":11,
						"path":"scale"
					}
				},
				{
					"sampler":12,
					"target":{
						"node":10,
						"path":"translation"
					}
				},
				{
					"sampler":13,
					"target":{
						"node":10,
						"path":"rotation"
					}
				},
				{
					"sampler":14,
					"target":{
						"node":10,
						"path":"scale"
					}
				},
				{
					"sampler":15,
					"target":{
						"node":3,
						"path":"translation"
					}
				},
				{
					"sampler":16,
					"target":{
						"node":3,
						"path":"rotation"
					}
				},
				{
					"sampler":17,
					"target":{
						"node":3,
						"path":"scale"
					}
				},
				{
					"sampler":18,
					"target":{
						"node":2,
						"path":"translation"
					}
				},
				{
					"sampler":19,
					"target":{
						"node":2,
						"path":"rotation"
					}
				},
				{
					"sampler":20,
					"target":{
						"node":2,
						"path":"scale"
					}
				},
				{
					"sampler":21,
					"target":{
						"node":1,
						"path":"translation"
					}
				},
				{
					"sampler":22,
					"target":{
						"node":1,
						"path":"rotation"
					}
				},
				{
					"sampler":23,
					"target":{
						"node":1,
						"path":"scale"
					}
				},
				{
					"sampler":24,
					"target":{
						"node":0,
						"path":"translation"
					}
				},
				{
					"sampler":25,
					"target":{
						"node":0,
						"path":"rotation"
					}
				},
				{
					"sampler":26,
					"target":{
						"node":0,
						"path":"scale"
					}
				},
				{
					"sampler":27,
					"target":{
						"node":7,
						"path":"translation"
					}
				},
				{
					"sampler":28,
					"target":{
						"node":7,
						"path":"rotation"
					}
				},
				{
					"sampler":29,
					"target":{
						"node":7,
						"path":"scale"
					}
				},
				{
					"sampler":30,
					"target":{
						"node":6,
						"path":"translation"
					}
				},
				{
					"sampler":31,
					"target":{
						"node":6,
						"path":"rotation"
					}
				},
				{
					"sampler":32,
					"target":{
						"node":6,
						"path":"scale"
					}
				},
				{
					"sampler":33,
					"target":{
						"node":5,
						"path":"translation"
					}
				},
				{
					"sampler":34,
					"target":{
						"node":5,
						"path":"rotation"
					}
				},
				{
					"sampler":35,
					"target":{
						"node":5,
						"path":"scale"
					}
				},
				{
					"sampler":36,
					"target":{
						"node":4,
						"path":"translation"
					}
				},
				{
					"sampler":37,
					"target":{
						"node":4,
						"path":"rotation"
					}
				},
				{
					"sampler":38,
					"target":{
						"node":4,
						"path":"scale"
					}
				},
				{
					"sampler":39,
					"target":{
						"node":9,
						"path":"translation"
					}
				},
				{
					"sampler":40,
					"target":{
						"node":9,
						"path":"rotation"
					}
				},
				{
					"sampler":41,
					"target":{
						"node":9,
						"path":"scale"
					}
				},
				{
					"sampler":42,
					"target":{
						"node":8,
						"path":"translation"
					}
				},
				{
					"sampler":43,
					"target":{
						"node":8,
						"path":"rotation"
					}
				},
				{
					"sampler":44,
					"target":{
						"node":8,
						"path":"scale"
					}
				},
				{
					"sampler":45,
					"target":{
						"node":15,
						"path":"translation"
					}
				},
				{
					"sampler":46,
					"target":{
						"node":15,
						"path":"rotation"
					}
				},
				{
					"sampler":47,
					"target":{
						"node":15,
						"path":"scale"
					}
				},
				{
					"sampler":48,
					"target":{
						"node":14,
						"path":"translation"
					}
				},
				{
					"sampler":49,
					"target":{
						"node":14,
						"path":"rotation"
					}
				},
				{
					"sampler":50,
					"target":{
						"node":14,
						"path":"scale"
					}
				},
				{
					"sampler":51,
					"target":{
						"node":13,
						"path":"translation"
					}
				},
				{
					"sampler":52,
					"target":{
						"node":13,
						"path":"rotation"
					}
				},
				{
					"sampler":53,
					"target":{
						"node":13,
						"path":"scale"
					}
				},
				{
					"sampler":54,
					"target":{
						"node":18,
						"path":"translation"
					}
				},
				{
					"sampler":55,
					"target":{
						"node":18,
						"path":"rotation"
					}
				},
				{
					"sampler":56,
					"target":{
						"node":18,
						"path":"scale"
					}
				},
				{
					"sampler":57,
					"target":{
						"node":17,
						"path":"translation"
					}
				},
				{
					"sampler":58,
					"target":{
						"node":17,
						"path":"rotation"
					}
				},
				{
					"sampler":59,
					"target":{
						"node":17,
						"path":"scale"
					}
				},
				{
					"sampler":60,
					"target":{
						"node":16,
						"path":"translation"
					}
				},
				{
					"sampler":61,
					"target":{
						"node":16,
						"path":"rotation"
					}
				},
				{
					"sampler":62,
					"target":{
						"node":16,
						"path":"scale"
					}
				},
				{
					"sampler":63,
					"target":{
						"node":22,
						"path":"translation"
					}
				},
				{
					"sampler":64,
					"target":{
						"node":22,
						"path":"rotation"
					}
				},
				{
					"sampler":65,
					"target":{
						"node":22,
						"path":"scale"
					}
				}
			],
			"name":"rig|rig|jump_end",
			"samplers":[
				{
					"input":7,
					"interpolation":"STEP",
					"output":8
				},
				{
					"input":7,
					"interpolation":"STEP",
					"output":9
				},
				{
					"input":7,
					"interpolation":"STEP",
					"output":10
				},
				{
					"input":11,
					"interpolation":"LINEAR",
					"output":12
				},
				{
					"input":11,
					"interpolation":"LINEAR",
					"output":13
				},
				{
					"input":7,
					"interpolation":"STEP",
					"output":14
				},
				{
					"input":11,
					"interpolation":"LINEAR",
					"output":15
				},
				{
					"input":11,
					"interpolation":"LINEAR",
					"output":16
				},
				{
					"input":7,
					"interpolation":"LINEAR",
					"output":17
				},
				{
					"input":7,
					"interpolation":"LINEAR",
					"output":18
				},
				{
					"input":11,
					"interpolation":"LINEAR",
					"output":19
				},
				{
					"input":7,
					"interpolation":"LINEAR",
					"output":20
				},
				{
					"input":7,
					"interpolation":"LINEAR",
					"output":21
				},
				{
					"input":11,
					"interpolation":"LINEAR",
					"output":22
				},
				{
					"input":7,
					"interpolation":"LINEAR",
					"output":23
				},
				{
					"input":11,
					"interpolation":"LINEAR",
					"output":24
				},
				{
					"input":11,
					"interpolation":"LINEAR",
					"output":25
				},
				{
					"input":7,
					"interpolation":"LINEAR",
					"output":26
				},
				{
					"input":7,
					"interpolation":"LINEAR",
					"output":27
				},
				{
					"input":11,
					"interpolation":"LINEAR",
					"output":28
				},
				{
					"input":7,
					"interpolation":"LINEAR",
					"output":29
				},
				{
					"input":7,
					"interpolation":"LINEAR",
					"output":30
				},
				{
					"input":11,
					"interpolation":"LINEAR",
					"output":31
				},
				{
					"input":7,
					"interpolation":"LINEAR",
					"output":32
				},
				{
					"input":7,
					"interpolation":"LINEAR",
					"output":33
				},
				{
					"input":11,
					"interpolation":"LINEAR",
					"output":34
				},
				{
					"input":7,
					"interpolation":"STEP",
					"output":35
				},
				{
					"input":11,
					"interpolation":"LINEAR",
					"output":36
				},
				{
					"input":11,
					"interpolation":"LINEAR",
					"output":37
				},
				{
					"input":7,
					"interpolation":"STEP",
					"output":38
				},
				{
					"input":7,
					"interpolation":"LINEAR",
					"output":39
				},
				{
					"input":11,
					"interpolation":"LINEAR",
					"output":40
				},
				{
					"input":7,
					"interpolation":"LINEAR",
					"output":41
				},
				{
					"input":7,
					"interpolation":"LINEAR",
					"output":42
				},
				{
					"input":11,
					"interpolation":"LINEAR",
					"output":43
				},
				{
					"input":7,
					"interpolation":"STEP",
					"output":44
				},
				{
					"input":7,
					"interpolation":"LINEAR",
					"output":45
				},
				{
					"input":11,
					"interpolation":"LINEAR",
					"output":46
				},
				{
					"input":7,
					"interpolation":"STEP",
					"output":47
				},
				{
					"input":11,
					"interpolation":"LINEAR",
					"output":48
				},
				{
					"input":11,
					"interpolation":"LINEAR",
					"output":49
				},
				{
					"input":7,
					"interpolation":"LINEAR",
					"output":50
				},
				{
					"input":7,
					"interpolation":"LINEAR",
					"output":51
				},
				{
					"input":11,
					"interpolation":"LINEAR",
					"output":52
				},
				{
					"input":7,
					"interpolation":"STEP",
					"output":53
				},
				{
					"input":7,
					"interpolation":"LINEAR",
					"output":54
				},
				{
					"input":11,
					"interpolation":"LINEAR",
					"output":55
				},
				{
					"input":7,
					"interpolation":"LINEAR",
					"output":56
				},
				{
					"input":7,
					"interpolation":"LINEAR",
					"output":57
				},
				{
					"input":11,
					"interpolation":"LINEAR",
					"output":58
				},
				{
					"input":7,
					"interpolation":"LINEAR",
					"output":59
				},
				{
					"input":7,
					"interpolation":"LINEAR",
					"output":60
				},
				{
					"input":11,
					"interpolation":"LINEAR",
					"output":61
				},
				{
					"input":7,
					"interpolation":"LINEAR",
					"output":62
				},
				{
					"input":7,
					"interpolation":"LINEAR",
					"output":63
				},
				{
					"input":11,
					"interpolation":"LINEAR",
					"output":64
				},
				{
					"input":7,
					"interpolation":"LINEAR",
					"output":65
				},
				{
					"input":7,
					"interpolation":"LINEAR",
					"output":66
				},
				{
					"input":11,
					"interpolation":"LINEAR",
					"output":67
				},
				{
					"input":7,
					"interpolation":"LINEAR",
					"output":68
				},
				{
					"input":7,
					"interpolation":"LINEAR",
					"output":69
				},
				{
					"input":11,
					"interpolation":"LINEAR",
					"output":70
				},
				{
					"input":7,
					"interpolation":"LINEAR",
					"output":71
				},
				{
					"input":7,
					"interpolation":"STEP",
					"output":72
				},
				{
					"input":7,
					"interpolation":"STEP",
					"output":73
				},
				{
					"input":7,
					"interpolation":"STEP",
					"output":74
				}
			]
		}
	],
	"materials":[
		{
			"doubleSided":true,
			"name":"Material_0.001",
			"pbrMetallicRoughness":{
				"baseColorTexture":{
					"index":0
				},
				"roughnessFactor":0.9036020040512085
			}
		}
	],
	"meshes":[
		{
			"name":"1e367306-a871-48f6-ac86-b0f6221f0b7c",
			"primitives":[
				{
					"attributes":{
						"POSITION":0,
						"NORMAL":1,
						"TEXCOORD_0":2,
						"JOINTS_0":3,
						"WEIGHTS_0":4
					},
					"indices":5,
					"material":0
				}
			]
		}
	],
	"textures":[
		{
			"sampler":0,
			"source":0
		}
	],
	"images":[
		{
			"mimeType":"image/png",
			"name":"Image_0",
			"uri":"Image_0.png"
		}
	],
	"skins":[
		{
			"inverseBindMatrices":6,
			"joints":[
				20,
				19,
				12,
				11,
				10,
				3,
				2,
				1,
				0,
				7,
				6,
				5,
				4,
				9,
				8,
				15,
				14,
				13,
				18,
				17,
				16
			],
			"name":"rig"
		}
	],
	"accessors":[
		{
			"bufferView":0,
			"componentType":5126,
			"count":57440,
			"max":[
				25.202899932861328,
				35.439735412597656,
				24.683704376220703
			],
			"min":[
				-25.18515396118164,
				-35.43548583984375,
				-24.6837100982666
			],
			"type":"VEC3"
		},
		{
			"bufferView":1,
			"componentType":5126,
			"count":57440,
			"type":"VEC3"
		},
		{
			"bufferView":2,
			"componentType":5126,
			"count":57440,
			"type":"VEC2"
		},
		{
			"bufferView":3,
			"componentType":5121,
			"count":57440,
			"type":"VEC4"
		},
		{
			"bufferView":4,
			"componentType":5126,
			"count":57440,
			"type":"VEC4"
		},
		{
			"bufferView":5,
			"componentType":5123,
			"count":59448,
			"type":"SCALAR"
		},
		{
			"bufferView":6,
			"componentType":5126,
			"count":21,
			"type":"MAT4"
		},
		{
			"bufferView":7,
			"componentType":5126,
			"count":2,
			"max":[
				0.6333333333333333
			],
			"min":[
				0.03333333333333333
			],
			"type":"SCALAR"
		},
		{
			"bufferView":8,
			"componentType":5126,
			"count":2,
			"type":"VEC3"
		},
		{
			"bufferView":9,
			"componentType":5126,
			"count":2,
			"type":"VEC4"
		},
		{
			"bufferView":10,
			"componentType":5126,
			"count":2,
			"type":"VEC3"
		},
		{
			"bufferView":11,
			"componentType":5126,
			"count":19,
			"max":[
				0.6333333333333333
			],
			"min":[
				0.03333333333333333
			],
			"type":"SCALAR"
		},
		{
			"bufferView":12,
			"componentType":5126,
			"count":19,
			"type":"VEC3"
		},
		{
			"bufferView":13,
			"componentType":5126,
			"count":19,
			"type":"VEC4"
		},
		{
			"bufferView":14,
			"componentType":5126,
			"count":2,
			"type":"VEC3"
		},
		{
			"bufferView":15,
			"componentType":5126,
			"count":19,
			"type":"VEC3"
		},
		{
			"bufferView":16,
			"componentType":5126,
			"count":19,
			"type":"VEC4"
		},
		{
			"bufferView":17,
			"componentType":5126,
			"count":2,
			"type":"VEC3"
		},
		{
			"bufferView":18,
			"componentType":5126,
			"count":2,
			"type":"VEC3"
		},
		{
			"bufferView":19,
			"componentType":5126,
			"count":19,
			"type":"VEC4"
		},
		{
			"bufferView":20,
			"componentType":5126,
			"count":2,
			"type":"VEC3"
		},
		{
			"bufferView":21,
			"componentType":5126,
			"count":2,
			"type":"VEC3"
		},
		{
			"bufferView":22,
			"componentType":5126,
			"count":19,
			"type":"VEC4"
		},
		{
			"bufferView":23,
			"componentType":5126,
			"count":2,
			"type":"VEC3"
		},
		{
			"bufferView":24,
			"componentType":5126,
			"count":19,
			"type":"VEC3"
		},
		{
			"bufferView":25,
			"componentType":5126,
			"count":19,
			"type":"VEC4"
		},
		{
			"bufferView":26,
			"componentType":5126,
			"count":2,
			"type":"VEC3"
		},
		{
			"bufferView":27,
			"componentType":5126,
			"count":2,
			"type":"VEC3"
		},
		{
			"bufferView":28,
			"componentType":5126,
			"count":19,
			"type":"VEC4"
		},
		{
			"bufferView":29,
			"componentType":5126,
			"count":2,
			"type":"VEC3"
		},
		{
			"bufferView":30,
			"componentType":5126,
			"count":2,
			"type":"VEC3"
		},
		{
			"bufferView":31,
			"componentType":5126,
			"count":19,
			"type":"VEC4"
		},
		{
			"bufferView":32,
			"componentType":5126,
			"count":2,
			"type":"VEC3"
		},
		{
			"bufferView":33,
			"componentType":5126,
			"count":2,
			"type":"VEC3"
		},
		{
			"bufferView":34,
			"componentType":5126,
			"count":19,
			"type":"VEC4"
		},
		{
			"bufferView":35,
			"componentType":5126,
			"count":2,
			"type":"VEC3"
		},
		{
			"bufferView":36,
			"componentType":5126,
			"count":19,
			"type":"VEC3"
		},
		{
			"bufferView":37,
			"componentType":5126,
			"count":19,
			"type":"VEC4"
		},
		{
			"bufferView":38,
			"componentType":5126,
			"count":2,
			"type":"VEC3"
		},
		{
			"bufferView":39,
			"componentType":5126,
			"count":2,
			"type":"VEC3"
		},
		{
			"bufferView":40,
			"componentType":5126,
			"count":19,
			"type":"VEC4"
		},
		{
			"bufferView":41,
			"componentType":5126,
			"count":2,
			"type":"VEC3"
		},
		{
			"bufferView":42,
			"componentType":5126,
			"count":2,
			"type":"VEC3"
		},
		{
			"bufferView":43,
			"componentType":5126,
			"count":19,
			"type":"VEC4"
		},
		{
			"bufferView":44,
			"componentType":5126,
			"count":2,
			"type":"VEC3"
		},
		{
			"bufferView":45,
			"componentType":5126,
			"count":2,
			"type":"VEC3"
		},
		{
			"bufferView":46,
			"componentType":5126,
			"count":19,
			"type":"VEC4"
		},
		{
			"bufferView":47,
			"componentType":5126,
			"count":2,
			"type":"VEC3"
		},
		{
			"bufferView":48,
			"componentType":5126,
			"count":19,
			"type":"VEC3"
		},
		{
			"bufferView":49,
			"componentType":5126,
			"count":19,
			"type":"VEC4"
		},
		{
			"bufferView":50,
			"componentType":5126,
			"count":2,
			"type":"VEC3"
		},
		{
			"bufferView":51,
			"componentType":5126,
			"count":2,
			"type":"VEC3"
		},
		{
			"bufferView":52,
			"componentType":5126,
			"count":19,
			"type":"VEC4"
		},
		{
			"bufferView":53,
			"componentType":5126,
			"count":2,
			"type":"VEC3"
		},
		{
			"bufferView":54,
			"componentType":5126,
			"count":2,
			"type":"VEC3"
		},
		{
			"bufferView":55,
			"componentType":5126,
			"count":19,
			"type":"VEC4"
		},
		{
			"bufferView":56,
			"componentType":5126,
			"count":2,
			"type":"VEC3"
		},
		{
			"bufferView":57,
			"componentType":5126,
			"count":2,
			"type":"VEC3"
		},
		{
			"bufferView":58,
			"componentType":5126,
			"count":19,
			"type":"VEC4"
		},
		{
			"bufferView":59,
			"componentType":5126,
			"count":2,
			"type":"VEC3"
		},
		{
			"bufferView":60,
			"componentType":5126,
			"count":2,
			"type":"VEC3"
		},
		{
			"bufferView":61,
			"componentType":5126,
			"count":19,
			"type":"VEC4"
		},
		{
			"bufferView":62,
			"componentType":5126,
			"count":2,
			"type":"VEC3"
		},
		{
			"bufferView":63,
			"componentType":5126,
			"count":2,
			"type":"VEC3"
		},
		{
			"bufferView":64,
			"componentType":5126,
			"count":19,
			"type":"VEC4"
		},
		{
			"bufferView":65,
			"componentType":5126,
			"count":2,
			"type":"VEC3"
		},
		{
			"bufferView":66,
			"componentType":5126,
			"count":2,
			"type":"VEC3"
		},
		{
			"bufferView":67,
			"componentType":5126,
			"count":19,
			"type":"VEC4"
		},
		{
			"bufferView":68,
			"componentType":5126,
			"count":2,
			"type":"VEC3"
		},
		{
			"bufferView":69,
			"componentType":5126,
			"count":2,
			"type":"VEC3"
		},
		{
			"bufferView":70,
			"componentType":5126,
			"count":19,
			"type":"VEC4"
		},
		{
			"bufferView":71,
			"componentType":5126,
			"count":2,
			"type":"VEC3"
		},
		{
			"bufferView":72,
			"componentType":5126,
			"count":2,
			"type":"VEC3"
		},
		{
			"bufferView":73,
			"componentType":5126,
			"count":2,
			"type":"VEC4"
		},
		{
			"bufferView":74,
			"componentType":5126,
			"count":2,
			"type":"VEC3"
		}
	],
	"bufferViews":[
		{
			"buffer":0,
			"byteLength":689280,
			"byteOffset":0,
			"target":34962
		},
		{
			"buffer":0,
			"byteLength":689280,
			"byteOffset":689280,
			"target":34962
		},
		{
			"buffer":0,
			"byteLength":459520,
			"byteOffset":1378560,
			"target":34962
		},
		{
			"buffer":0,
			"byteLength":229760,
			"byteOffset":1838080,
			"target":34962
		},
		{
			"buffer":0,
			"byteLength":919040,
			"byteOffset":2067840,
			"target":34962
		},
		{
			"buffer":0,
			"byteLength":118896,
			"byteOffset":2986880,
			"target":34963
		},
		{
			"buffer":0,
			"byteLength":1344,
			"byteOffset":3105776
		},
		{
			"buffer":0,
			"byteLength":8,
			"byteOffset":3107120
		},
		{
			"buffer":0,
			"byteLength":24,
			"byteOffset":3107128
		},
		{
			"buffer":0,
			"byteLength":32,
			"byteOffset":3107152
		},
		{
			"buffer":0,
			"byteLength":24,
			"byteOffset":3107184
		},
		{
			"buffer":0,
			"byteLength":76,
			"byteOffset":3107208
		},
		{
			"buffer":0,
			"byteLength":228,
			"byteOffset":3107284
		},
		{
			"buffer":0,
			"byteLength":304,
			"byteOffset":3107512
		},
		{
			"buffer":0,
			"byteLength":24,
			"byteOffset":3107816
		},
		{
			"buffer":0,
			"byteLength":228,
			"byteOffset":3107840
		},
		{
			"buffer":0,
			"byteLength":304,
			"byteOffset":3108068
		},
		{
			"buffer":0,
			"byteLength":24,
			"byteOffset":3108372
		},
		{
			"buffer":0,
			"byteLength":24,
			"byteOffset":3108396
		},
		{
			"buffer":0,
			"byteLength":304,
			"byteOffset":3108420
		},
		{
			"buffer":0,
			"byteLength":24,
			"byteOffset":3108724
		},
		{
			"buffer":0,
			"byteLength":24,
			"byteOffset":3108748
		},
		{
			"buffer":0,
			"byteLength":304,
			"byteOffset":3108772
		},
		{
			"buffer":0,
			"byteLength":24,
			"byteOffset":3109076
		},
		{
			"buffer":0,
			"byteLength":228,
			"byteOffset":3109100
		},
		{
			"buffer":0,
			"byteLength":304,
			"byteOffset":3109328
		},
		{
			"buffer":0,
			"byteLength":24,
			"byteOffset":3109632
		},
		{
			"buffer":0,
			"byteLength":24,
			"byteOffset":3109656
		},
		{
			"buffer":0,
			"byteLength":304,
			"byteOffset":3109680
		},
		{
			"buffer":0,
			"byteLength":24,
			"byteOffset":3109984
		},
		{
			"buffer":0,
			"byteLength":24,
			"byteOffset":3110008
		},
		{
			"buffer":0,
			"byteLength":304,
			"byteOffset":3110032
		},
		{
			"buffer":0,
			"byteLength":24,
			"byteOffset":3110336
		},
		{
			"buffer":0,
			"byteLength":24,
			"byteOffset":3110360
		},
		{
			"buffer":0,
			"byteLength":304,
			"byteOffset":3110384
		},
		{
			"buffer":0,
			"byteLength":24,
			"byteOffset":3110688
		},
		{
			"buffer":0,
			"byteLength":228,
			"byteOffset":3110712
		},
		{
			"buffer":0,
			"byteLength":304,
			"byteOffset":3110940
		},
		{
			"buffer":0,
			"byteLength":24,
			"byteOffset":3111244
		},
		{
			"buffer":0,
			"byteLength":24,
			"byteOffset":3111268
		},
		{
			"buffer":0,
			"byteLength":304,
			"byteOffset":3111292
		},
		{
			"buffer":0,
			"byteLength":24,
			"byteOffset":3111596
		},
		{
			"buffer":0,
			"byteLength":24,
			"byteOffset":3111620
		},
		{
			"buffer":0,
			"byteLength":304,
			"byteOffset":3111644
		},
		{
			"buffer":0,
			"byteLength":24,
			"byteOffset":3111948
		},
		{
			"buffer":0,
			"byteLength":24,
			"byteOffset":3111972
		},
		{
			"buffer":0,
			"byteLength":304,
			"byteOffset":3111996
		},
		{
			"buffer":0,
			"byteLength":24,
			"byteOffset":3112300
		},
		{
			"buffer":0,
			"byteLength":228,
			"byteOffset":3112324
		},
		{
			"buffer":0,
			"byteLength":304,
			"byteOffset":3112552
		},
		{
			"buffer":0,
			"byteLength":24,
			"byteOffset":3112856
		},
		{
			"buffer":0,
			"byteLength":24,
			"byteOffset":3112880
		},
		{
			"buffer":0,
			"byteLength":304,
			"byteOffset":3112904
		},
		{
			"buffer":0,
			"byteLength":24,
			"byteOffset":3113208
		},
		{
			"buffer":0,
			"byteLength":24,
			"byteOffset":3113232
		},
		{
			"buffer":0,
			"byteLength":304,
			"byteOffset":3113256
		},
		{
			"buffer":0,
			"byteLength":24,
			"byteOffset":3113560
		},
		{
			"buffer":0,
			"byteLength":24,
			"byteOffset":3113584
		},
		{
			"buffer":0,
			"byteLength":304,
			"byteOffset":3113608
		},
		{
			"buffer":0,
			"byteLength":24,
			"byteOffset":3113912
		},
		{
			"buffer":0,
			"byteLength":24,
			"byteOffset":3113936
		},
		{
			"buffer":0,
			"byteLength":304,
			"byteOffset":3113960
		},
		{
			"buffer":0,
			"byteLength":24,
			"byteOffset":3114264
		},
		{
			"buffer":0,
			"byteLength":24,
			"byteOffset":3114288
		},
		{
			"buffer":0,
			"byteLength":304,
			"byteOffset":3114312
		},
		{
			"buffer":0,
			"byteLength":24,
			"byteOffset":3114616
		},
		{
			"buffer":0,
			"byteLength":24,
			"byteOffset":3114640
		},
		{
			"buffer":0,
			"byteLength":304,
			"byteOffset":3114664
		},
		{
			"buffer":0,
			"byteLength":24,
			"byteOffset":3114968
		},
		{
			"buffer":0,
			"byteLength":24,
			"byteOffset":3114992
		},
		{
			"buffer":0,
			"byteLength":304,
			"byteOffset":3115016
		},
		{
			"buffer":0,
			"byteLength":24,
			"byteOffset":3115320
		},
		{
			"buffer":0,
			"byteLength":24,
			"byteOffset":3115344
		},
		{
			"buffer":0,
			"byteLength":32,
			"byteOffset":3115368
		},
		{
			"buffer":0,
			"byteLength":24,
			"byteOffset":3115400
		}
	],
	"samplers":[
		{
			"magFilter":9729,
			"minFilter":9987
		}
	],
	"buffers":[
		{
			"byteLength":3115424,
			"uri":"1e367306-a871-48f6-ac86-b0f6221f0b7c_jump_end.bin"
		}
	]
}
